<?xml version="1.0" standalone="no"?>
<!DOCTYPE svg PUBLIC "-//W3C//DTD SVG 20010904//EN"
 "http://www.w3.org/TR/2001/REC-SVG-20010904/DTD/svg10.dtd">
<svg version="1.0" xmlns="http://www.w3.org/2000/svg"
 width="941.000000pt" height="941.000000pt" viewBox="0 0 941.000000 941.000000"
 preserveAspectRatio="xMidYMid meet">
<metadata>
Created by potrace 1.14, written by Peter Selinger 2001-2017
</metadata>
<g transform="translate(0.000000,941.000000) scale(0.100000,-0.100000)"
fill="#000000" stroke="none">
<path d="M4319 9389 c-1219 -101 -2355 -676 -3160 -1599 -593 -680 -980 -1527
-1108 -2425 -35 -242 -44 -382 -44 -660 -1 -617 101 -1160 325 -1733 73 -187
238 -520 347 -700 724 -1200 1959 -2021 3341 -2221 255 -37 382 -46 685 -46
481 0 859 52 1294 177 1371 393 2490 1387 3044 2705 263 624 395 1375 358
2033 -13 220 -14 239 -42 440 -123 878 -478 1674 -1058 2370 -123 148 -423
448 -571 571 -770 641 -1665 1008 -2655 1089 -139 11 -616 11 -756 -1z"/>
</g>
</svg>
